<svg width="211" height="30" viewBox="0 0 211 30" fill="none" xmlns="http://www.w3.org/2000/svg">
<path d="M12.8276 18.9902H4.78564L2.97949 24H0.369141L7.69922 4.80469H9.91406L17.2573 24H14.6602L12.8276 18.9902ZM5.55029 16.9072H12.0762L8.80664 7.9292L5.55029 16.9072ZM22.1089 24H19.6699V3.75H22.1089V24ZM28.6743 24H26.2222V9.73535H28.6743V24ZM41.001 20.2163C41.001 19.5571 40.7505 19.0474 40.2495 18.687C39.7573 18.3179 38.8916 18.0015 37.6523 17.7378C36.4219 17.4741 35.4419 17.1577 34.7124 16.7886C33.9917 16.4194 33.4556 15.98 33.104 15.4702C32.7612 14.9604 32.5898 14.354 32.5898 13.6509C32.5898 12.4819 33.082 11.4932 34.0664 10.6846C35.0596 9.87598 36.3252 9.47168 37.8633 9.47168C39.4805 9.47168 40.79 9.88916 41.792 10.7241C42.8027 11.5591 43.3081 12.627 43.3081 13.9277H40.856C40.856 13.2598 40.5703 12.6841 39.999 12.2007C39.4365 11.7173 38.7246 11.4756 37.8633 11.4756C36.9756 11.4756 36.2812 11.6689 35.7803 12.0557C35.2793 12.4424 35.0288 12.9478 35.0288 13.5718C35.0288 14.1606 35.2617 14.6045 35.7275 14.9033C36.1934 15.2021 37.0327 15.4878 38.2456 15.7603C39.4673 16.0327 40.4561 16.3579 41.2119 16.7358C41.9678 17.1138 42.5259 17.5708 42.8862 18.1069C43.2554 18.6343 43.4399 19.2803 43.4399 20.0449C43.4399 21.3193 42.9302 22.3433 41.9106 23.1167C40.8911 23.8813 39.5684 24.2637 37.9424 24.2637C36.7998 24.2637 35.7891 24.0615 34.9102 23.6572C34.0312 23.2529 33.3413 22.6904 32.8403 21.9697C32.3481 21.2402 32.1021 20.4536 32.1021 19.6099H34.541C34.585 20.4272 34.9102 21.0776 35.5166 21.561C36.1318 22.0356 36.9404 22.2729 37.9424 22.2729C38.8652 22.2729 39.6035 22.0884 40.1572 21.7192C40.7197 21.3413 41.001 20.8403 41.001 20.2163ZM39.208 24.1055L39.0498 24.791C40.3945 25.0283 41.0669 25.7886 41.0669 27.0718C41.0669 27.9243 40.7153 28.5967 40.0122 29.0889C39.3091 29.5898 38.3291 29.8403 37.0723 29.8403L36.98 28.4297C37.6743 28.4297 38.2104 28.3154 38.5884 28.0869C38.9751 27.8584 39.1685 27.5376 39.1685 27.1245C39.1685 26.7378 39.0278 26.4521 38.7466 26.2676C38.4653 26.083 37.894 25.9512 37.0327 25.8721L37.4546 24.1055H39.208ZM51.3237 20.6909L54.8569 9.73535H57.3486L52.2334 24H50.3745L45.2065 9.73535H47.6982L51.3237 20.6909ZM65.4302 24.2637C63.4966 24.2637 61.9233 23.6309 60.7104 22.3652C59.4976 21.0908 58.8911 19.3901 58.8911 17.2632V16.8149C58.8911 15.3999 59.1592 14.1387 59.6953 13.0312C60.2402 11.915 60.9961 11.0449 61.9629 10.4209C62.9385 9.78809 63.9932 9.47168 65.127 9.47168C66.9814 9.47168 68.4229 10.0825 69.4512 11.3042C70.4795 12.5259 70.9937 14.2749 70.9937 16.5513V17.5664H61.3301C61.3652 18.9727 61.7739 20.1108 62.5562 20.981C63.3472 21.8423 64.3491 22.2729 65.562 22.2729C66.4233 22.2729 67.1528 22.0972 67.7505 21.7456C68.3481 21.394 68.8711 20.9282 69.3193 20.3481L70.8091 21.5083C69.6138 23.3452 67.8208 24.2637 65.4302 24.2637ZM65.127 11.4756C64.1426 11.4756 63.3164 11.8359 62.6484 12.5566C61.9805 13.2686 61.5674 14.2705 61.4092 15.5625H68.5547V15.3779C68.4844 14.1387 68.1504 13.1807 67.5527 12.5039C66.9551 11.8184 66.1465 11.4756 65.127 11.4756ZM80.7231 11.9238C80.354 11.8623 79.9541 11.8315 79.5234 11.8315C77.9238 11.8315 76.8384 12.5127 76.2671 13.875V24H73.8281V9.73535H76.2012L76.2407 11.3833C77.0405 10.1089 78.1743 9.47168 79.6421 9.47168C80.1167 9.47168 80.4771 9.5332 80.7231 9.65625V11.9238ZM85.6274 24H83.1885V9.73535H85.6274V24ZM82.9907 5.95166C82.9907 5.55615 83.1094 5.22217 83.3467 4.94971C83.5928 4.67725 83.9531 4.54102 84.4277 4.54102C84.9023 4.54102 85.2627 4.67725 85.5088 4.94971C85.7549 5.22217 85.8779 5.55615 85.8779 5.95166C85.8779 6.34717 85.7549 6.67676 85.5088 6.94043C85.2627 7.2041 84.9023 7.33594 84.4277 7.33594C83.9531 7.33594 83.5928 7.2041 83.3467 6.94043C83.1094 6.67676 82.9907 6.34717 82.9907 5.95166ZM97.8486 20.2163C97.8486 19.5571 97.5981 19.0474 97.0972 18.687C96.605 18.3179 95.7393 18.0015 94.5 17.7378C93.2695 17.4741 92.2896 17.1577 91.5601 16.7886C90.8394 16.4194 90.3032 15.98 89.9517 15.4702C89.6089 14.9604 89.4375 14.354 89.4375 13.6509C89.4375 12.4819 89.9297 11.4932 90.9141 10.6846C91.9072 9.87598 93.1729 9.47168 94.7109 9.47168C96.3281 9.47168 97.6377 9.88916 98.6396 10.7241C99.6504 11.5591 100.156 12.627 100.156 13.9277H97.7036C97.7036 13.2598 97.418 12.6841 96.8467 12.2007C96.2842 11.7173 95.5723 11.4756 94.7109 11.4756C93.8232 11.4756 93.1289 11.6689 92.6279 12.0557C92.127 12.4424 91.8765 12.9478 91.8765 13.5718C91.8765 14.1606 92.1094 14.6045 92.5752 14.9033C93.041 15.2021 93.8804 15.4878 95.0933 15.7603C96.3149 16.0327 97.3037 16.3579 98.0596 16.7358C98.8154 17.1138 99.3735 17.5708 99.7339 18.1069C100.103 18.6343 100.288 19.2803 100.288 20.0449C100.288 21.3193 99.7778 22.3433 98.7583 23.1167C97.7388 23.8813 96.416 24.2637 94.79 24.2637C93.6475 24.2637 92.6367 24.0615 91.7578 23.6572C90.8789 23.2529 90.189 22.6904 89.688 21.9697C89.1958 21.2402 88.9497 20.4536 88.9497 19.6099H91.3887C91.4326 20.4272 91.7578 21.0776 92.3643 21.561C92.9795 22.0356 93.7881 22.2729 94.79 22.2729C95.7129 22.2729 96.4512 22.0884 97.0049 21.7192C97.5674 21.3413 97.8486 20.8403 97.8486 20.2163ZM96.0557 24.1055L95.8975 24.791C97.2422 25.0283 97.9146 25.7886 97.9146 27.0718C97.9146 27.9243 97.563 28.5967 96.8599 29.0889C96.1567 29.5898 95.1768 29.8403 93.9199 29.8403L93.8276 28.4297C94.522 28.4297 95.0581 28.3154 95.436 28.0869C95.8228 27.8584 96.0161 27.5376 96.0161 27.1245C96.0161 26.7378 95.8755 26.4521 95.5942 26.2676C95.313 26.083 94.7417 25.9512 93.8804 25.8721L94.3022 24.1055H96.0557Z" fill="#22D1EE"/>
<path d="M109.503 15.4438C107.332 14.8198 105.75 14.0552 104.757 13.1499C103.772 12.2358 103.28 11.1108 103.28 9.7749C103.28 8.26318 103.882 7.01514 105.086 6.03076C106.299 5.0376 107.873 4.54102 109.806 4.54102C111.125 4.54102 112.298 4.7959 113.326 5.30566C114.363 5.81543 115.163 6.51855 115.726 7.41504C116.297 8.31152 116.583 9.2915 116.583 10.355H114.038C114.038 9.19482 113.669 8.28516 112.931 7.62598C112.192 6.95801 111.151 6.62402 109.806 6.62402C108.558 6.62402 107.583 6.90088 106.879 7.45459C106.185 7.99951 105.838 8.75977 105.838 9.73535C105.838 10.5176 106.167 11.1812 106.827 11.7261C107.495 12.2622 108.624 12.7544 110.215 13.2026C111.814 13.6509 113.062 14.1475 113.959 14.6924C114.864 15.2285 115.532 15.8569 115.963 16.5776C116.402 17.2983 116.622 18.1465 116.622 19.1221C116.622 20.6777 116.016 21.9258 114.803 22.8662C113.59 23.7979 111.968 24.2637 109.938 24.2637C108.62 24.2637 107.389 24.0132 106.247 23.5122C105.104 23.0024 104.221 22.3081 103.597 21.4292C102.981 20.5503 102.674 19.5527 102.674 18.4365H105.218C105.218 19.5967 105.645 20.5151 106.497 21.1919C107.358 21.8599 108.505 22.1938 109.938 22.1938C111.274 22.1938 112.298 21.9214 113.01 21.3765C113.722 20.8315 114.078 20.0889 114.078 19.1484C114.078 18.208 113.748 17.4829 113.089 16.9731C112.43 16.4546 111.234 15.9448 109.503 15.4438ZM130.729 15.1274H122.41V21.9302H132.073V24H119.878V4.80469H131.941V6.8877H122.41V13.0576H130.729V15.1274ZM137.755 16.4854V24H135.224V4.80469H142.304C144.404 4.80469 146.048 5.34082 147.234 6.41309C148.43 7.48535 149.027 8.90479 149.027 10.6714C149.027 12.5347 148.443 13.9717 147.274 14.9824C146.114 15.9844 144.448 16.4854 142.277 16.4854H137.755ZM137.755 14.4155H142.304C143.657 14.4155 144.694 14.0991 145.415 13.4663C146.136 12.8247 146.496 11.9019 146.496 10.6978C146.496 9.55518 146.136 8.64111 145.415 7.95557C144.694 7.27002 143.706 6.91406 142.449 6.8877H137.755V14.4155ZM163.107 15.1274H154.789V21.9302H164.452V24H152.257V4.80469H164.32V6.8877H154.789V13.0576H163.107V15.1274ZM181.129 6.8877H174.959V24H172.441V6.8877H166.285V4.80469H181.129V6.8877ZM186.693 24H184.162V4.80469H186.693V24ZM183.977 1.73291C183.977 1.3374 184.096 1.00342 184.333 0.730957C184.579 0.458496 184.939 0.322266 185.414 0.322266C185.889 0.322266 186.249 0.458496 186.495 0.730957C186.741 1.00342 186.864 1.3374 186.864 1.73291C186.864 2.12842 186.741 2.45801 186.495 2.72168C186.249 2.98535 185.889 3.11719 185.414 3.11719C184.939 3.11719 184.579 2.98535 184.333 2.72168C184.096 2.45801 183.977 2.12842 183.977 1.73291ZM194.603 4.80469L200.878 20.4668L207.154 4.80469H210.437V24H207.905V16.5249L208.143 8.45654L201.841 24H199.903L193.614 8.49609L193.865 16.5249V24H191.333V4.80469H194.603Z" fill="#21E6C1"/>
</svg>
